<svg xmlns="http://www.w3.org/2000/svg" xmlns:xlink="http://www.w3.org/1999/xlink" width="200" height="200" class="icon" p-id="2987" t="1641820191793" version="1.1" viewBox="0 0 1024 1024"><defs><style type="text/css"/></defs><path d="M941 414.6H83c-11 0-20-9-20-20s9-20 20-20h858c11 0 20 9 20 20s-8.9 20-20 20z" p-id="2988"/><path d="M937.2 405.4c-5.1 0-10.2-2-14.1-5.9L780.7 257.1c-7.8-7.8-7.8-20.5 0-28.3 7.8-7.8 20.5-7.8 28.3 0l142.4 142.4c7.8 7.8 7.8 20.5 0 28.3-4 3.9-9.1 5.9-14.2 5.9zM941 649.4H83c-11 0-20-9-20-20s9-20 20-20h858c11 0 20 9 20 20s-8.9 20-20 20z" p-id="2989"/><path d="M794.8 801c-5.1 0-10.2-2-14.1-5.9-7.8-7.8-7.8-20.5 0-28.3L923 624.5c7.8-7.8 20.5-7.8 28.3 0s7.8 20.5 0 28.3L808.9 795.1c-3.9 3.9-9 5.9-14.1 5.9z" p-id="2990"/></svg>