<?xml version="1.0" standalone="no"?><!DOCTYPE svg PUBLIC "-//W3C//DTD SVG 1.1//EN" "http://www.w3.org/Graphics/SVG/1.1/DTD/svg11.dtd"><svg class="icon" width="200px" height="200.00px" viewBox="0 0 1024 1024" version="1.1" xmlns="http://www.w3.org/2000/svg"><path fill="#ffffff" d="M813.738667 934.4L512 632.661333 210.261333 934.4a85.589333 85.589333 0 0 1-120.661333 0 85.589333 85.589333 0 0 1 0-120.661333L391.338667 512 89.6 210.261333a85.589333 85.589333 0 0 1 0-120.661333 85.589333 85.589333 0 0 1 120.661333 0L512 391.338667 813.738667 89.6a85.589333 85.589333 0 0 1 120.661333 0 85.589333 85.589333 0 0 1 0 120.661333L632.661333 512l301.738667 301.738667a85.589333 85.589333 0 0 1 0 120.661333 85.589333 85.589333 0 0 1-120.661333 0z" /></svg>