<?xml version="1.0" standalone="no"?><!DOCTYPE svg PUBLIC "-//W3C//DTD SVG 1.1//EN" "http://www.w3.org/Graphics/SVG/1.1/DTD/svg11.dtd"><svg class="icon" width="200px" height="200.00px" viewBox="0 0 1024 1024" version="1.1" xmlns="http://www.w3.org/2000/svg"><path fill="#594d9c" d="M400.2816 546.816a51.2 51.2 0 0 0 11.5712 11.4688l224.768 160.9728a51.2 51.2 0 0 0 80.9984-41.6256V355.6352a51.2 51.2 0 0 0-80.9984-41.6256l-224.768 161.024a51.2 51.2 0 0 0-11.5712 11.4176V302.592A46.592 46.592 0 0 0 307.2 302.592v418.9184a46.592 46.592 0 0 0 93.0816 0V546.816zM512 1024C229.2224 1024 0 794.7776 0 512S229.2224 0 512 0s512 229.2224 512 512-229.2224 512-512 512z"  /></svg>