<svg xmlns="http://www.w3.org/2000/svg" xmlns:xlink="http://www.w3.org/1999/xlink" width="200" height="200" class="icon" p-id="2361" t="1640347222183" version="1.1" viewBox="0 0 1024 1024"><defs><style type="text/css"/></defs><path fill="#242424" d="M121.3 680.4m-40.9 0a40.9 40.9 0 1 0 81.8 0 40.9 40.9 0 1 0-81.8 0Z" p-id="2362"/><path fill="#242424" d="M266.5 855.6m-40.9 0a40.9 40.9 0 1 0 81.8 0 40.9 40.9 0 1 0-81.8 0Z" p-id="2363"/><path fill="#242424" d="M512 35.6C252.8 35.6 42.6 245.7 42.6 505c0 69 14.9 134.6 41.7 193.6l74.2-35.4c-21.7-48.3-33.7-101.8-33.7-158.2 0-213.8 173.3-387.2 387.2-387.2S899.2 291.1 899.2 505 725.8 892.1 512 892.1c-81.9 0-157.9-25.4-220.4-68.8l-51.2 57.2c1.5 0.7 2.5 2.1 2.5 3.6s0.3 3.2-1.2 3.9c76.7 54.5 169.2 86.2 270.4 86.2 259.2 0 469.4-210.1 469.4-469.4S771.2 35.6 512 35.6z" p-id="2364"/><path fill="#242424" d="M419.9 329.1c22.6 0 41 18.3 41 41v261.7c0 22.6-18.3 41-41 41-22.6 0-41-18.3-41-41V370.1c0-22.6 18.4-41 41-41zM610.9 329.1c22.6 0 41 18.3 41 41v261.7c0 22.6-18.3 41-41 41-22.6 0-41-18.3-41-41V370.1c0-22.6 18.4-41 41-41z" p-id="2365"/></svg>