<?xml version="1.0" standalone="no"?><!DOCTYPE svg PUBLIC "-//W3C//DTD SVG 1.1//EN" "http://www.w3.org/Graphics/SVG/1.1/DTD/svg11.dtd"><svg class="icon" width="200px" height="200.00px" viewBox="0 0 1024 1024" version="1.1" xmlns="http://www.w3.org/2000/svg"><path d="M413.573192 166.151675l-12.641975 7.825985c-6.621987 4.213992-16.253968 2.407995-20.46796-4.81599-4.213992-6.621987-2.407995-16.253968 4.815991-20.46796l12.641975-7.825985c6.621987-4.213992 16.253968-2.407995 20.46796 4.81599 4.213992 7.223986 2.407995 16.253968-4.815991 20.46796" fill="#FFFFFF" /><path d="M1017.980012 508.087008c0 252.839506-205.281599 458.121105-458.121105 458.121105-252.839506 0-458.121105-205.281599-458.121106-458.121105C101.737801 255.247501 307.0194 49.965902 559.858907 49.965902c253.441505 0 458.121105 205.281599 458.121105 458.121106" fill="#F5E435" /><path d="M515.912992 57.791887c-21.671958 0-42.741917 1.805996-63.209876 4.213992 222.739565 30.70194 394.911229 222.137566 394.911229 453.305115s-171.569665 422.603175-394.911229 453.305114c20.46796 3.009994 41.537919 4.213992 63.209876 4.213992 252.839506 0 458.121105-205.281599 458.121106-458.121105-0.601999-252.237507-205.281599-456.917108-458.121106-456.917108" fill="#E6C61F" /><path d="M456.315109 422.603175c0 71.035861-57.791887 128.827748-128.827749 128.827748-71.035861 0-128.22575-57.791887-128.225749-128.827748s57.791887-128.827748 128.225749-128.827749c71.035861 0.601999 128.827748 57.791887 128.827749 128.827749M817.514403 426.215168c0 71.035861-57.791887 128.827748-128.827748 128.827748-71.035861 0-128.22575-57.791887-128.22575-128.827748 0-71.035861 57.791887-128.827748 128.22575-128.827749 71.035861 0 128.827748 57.791887 128.827748 128.827749M346.149324 208.893592l-90.299824 60.199882c-12.039976 7.825985-27.691946 4.213992-34.915932-8.427983-7.825985-13.243974-4.213992-30.099941 7.825985-37.925926l90.299824-60.199882c12.039976-7.825985 27.691946-4.213992 34.915932 8.427983 7.223986 12.641975 3.611993 29.497942-7.825985 37.925926M412.971193 167.355673l-12.641975 7.825985c-7.223986 4.213992-16.253968 2.407995-20.46796-4.815991-4.213992-7.223986-2.407995-16.253968 4.815991-20.46796l12.641975-7.825984c7.223986-4.213992 16.253968-2.407995 20.46796 4.81599 4.213992 6.621987 2.407995 16.253968-4.815991 20.46796" fill="#FFFFFF" /><path d="M346.149324 333.507349c0 10.23398-8.427984 18.661964-18.661964 18.661963-10.23398 0-18.661964-8.427984-18.661963-18.661963 0-10.23398 8.427984-18.661964 18.661963-18.661964 10.835979 0 18.661964 8.427984 18.661964 18.661964M731.428571 512.300999c0 10.23398-8.427984 18.661964-18.661963 18.661964-10.23398 0-18.661964-8.427984-18.661964-18.661964 0-10.23398 8.427984-18.661964 18.661964-18.661963 10.23398 0 18.661964 8.427984 18.661963 18.661963" fill="#5A5B5B" /><path d="M836.778366 698.318636c0 28.895944-23.477954 51.771899-51.771899 51.771899-28.895944 0-51.771899-23.477954-51.771899-51.771899 0-28.895944 23.477954-51.771899 51.771899-51.771899 28.293945-0.601999 51.771899 22.875955 51.771899 51.771899M268.491476 698.318636c0 28.895944-23.477954 51.771899-51.771899 51.771899s-51.771899-23.477954-51.771899-51.771899c0-28.895944 23.477954-51.771899 51.771899-51.771899s51.771899 22.875955 51.771899 51.771899" fill="#F4D1D0" /><path d="M46.955908 407.553204c9.631981 0 18.059965-6.621987 20.46796-15.651969 15.049971-49.363904 37.925926-94.513815 68.025867-134.847737 11.437978-15.049971 0-36.119929-18.661963-34.915932h-0.601999c-6.019988 0.601999-12.039976 3.611993-15.651969 8.427984C67.423868 275.113463 42.139918 325.079365 25.885949 379.259259c-4.213992 13.845973 6.019988 28.293945 21.069959 28.293945-0.601999 0 0 0 0 0M954.770135 458.723104c-25.885949-221.535567-207.087596-397.319224-429.225161-417.185185-117.99177-10.835979-228.157554 22.273956-316.651382 84.279835-17.457966 12.641975-7.825985 40.333921 13.845973 39.731923h0.601999c4.213992 0 7.825985-1.805996 11.437977-3.611993 86.687831-60.801881 195.649618-90.901822 313.039389-73.443857 184.21164 27.691946 332.303351 173.375661 361.199295 356.985303 13.845973 86.085832 1.805996 167.957672-28.895944 240.197531-4.815991 11.437978 0 24.681952 11.437978 28.895943h0.601998c10.835979 4.213992 23.477954-0.601999 27.691946-10.835978 31.303939-74.647854 45.149912-157.723692 34.915932-245.013522M860.858319 769.956496l-1.203998-1.203997c-9.631981-8.427984-23.477954-6.019988-31.303939 3.611992-11.437978 15.651969-24.079953 30.70194-37.925926 44.547913-8.427984 9.029982-7.825985 23.477954 1.805997 31.303939h0.601998c8.427984 7.223986 21.069959 6.621987 28.895944-1.203997 15.049971-15.651969 29.497942-31.905938 42.139918-49.363904 7.223986-8.427984 5.417989-20.46796-3.009994-27.691946M718.184597 877.112287c-55.985891 36.721928-121.001764 60.801881-190.833627 68.627866C323.875367 967.412111 108.961787 812.698413 60.199882 614.038801c-10.23398-42.139918-12.641975-83.677837-10.23398-123.409759 0.601999-12.641975-9.029982-23.477954-21.671957-23.477954-11.437978 0-21.069959 8.427984-21.671958 19.865961-1.805996 25.885949-1.805996 51.771899 1.203998 78.259847 22.875955 222.137566 202.271605 401.533216 424.409171 423.807172 114.981775 11.437978 222.137566-18.059965 310.029394-75.851852 10.835979-7.223986 13.243974-22.273956 4.815991-32.507936v-0.601999c-7.825985-7.825985-19.865961-9.029982-28.895944-3.009994" fill="#3A3A3A" /><path d="M727.21458 720.592593l-7.825985-8.427984c-13.845973 13.243974-32.507937 19.865961-51.771899 19.865961-19.865961 0-37.925926-7.223986-51.771899-19.865961-15.651969-14.447972-36.721928-22.875955-58.995885-22.875955-21.069959 0-41.537919 7.825985-57.189888 21.069959-13.845973 13.243974-32.507937 19.865961-51.771899 19.865961-19.865961 0-37.925926-7.223986-51.771899-19.865961-15.651969-15.049971-36.721928-22.875955-59.597883-22.875956-22.273956 0-43.343915 8.427984-59.597884 22.875956l7.825985 8.427983c13.845973-13.243974 32.507937-19.865961 51.771899-19.865961 19.865961 0 37.925926 7.223986 51.771899 19.865961 15.651969 15.049971 36.721928 22.875955 59.597883 22.875955 21.069959 0 41.537919-7.825985 57.189889-21.069958 13.845973-13.243974 32.507937-19.865961 51.771898-19.865962 19.865961 0 37.925926 7.223986 51.771899 19.865962 15.651969 14.447972 36.721928 22.875955 58.995885 22.875955 22.273956 0 43.343915-7.825985 59.597884-22.875955z" fill="#5A5B5B" /><path d="M667.616696 745.876543c-21.671958 0-42.741917-7.825985-58.995885-21.671957l-1.805996-1.203998c-13.243974-12.641975-31.303939-19.263962-50.567901-19.263962s-36.721928 7.223986-50.567902 19.263962l-1.805996 1.805996c-15.651969 13.243974-36.119929 20.46796-56.58789 20.46796-22.875955 0-44.547913-8.427984-60.801881-23.477954-13.243974-12.641975-31.303939-19.263962-50.567901-19.263962s-36.721928 7.223986-50.567901 19.263962l-1.805997 1.805997-10.835979-11.437978 1.805997-1.805996c16.253968-15.049971 37.925926-23.477954 60.801881-23.477955s44.547913 8.427984 60.801881 23.477955c13.243974 12.641975 31.303939 19.263962 50.567902 19.263962s36.721928-6.621987 50.567901-19.263962l1.805996-1.805997c15.651969-13.243974 36.119929-20.46796 56.58789-20.46796 21.671958 0 42.741917 7.825985 58.995885 21.671958l1.805996 1.203997c13.243974 12.641975 31.303939 19.263962 50.567901 19.263963s36.721928-6.621987 50.567901-19.263963l1.805997-1.805996 10.835979 11.437978-1.805997 1.805996c-16.253968 15.049971-37.925926 23.477954-60.801881 23.477954z m-58.995885-27.691946l1.805997 1.203998c15.651969 14.447972 35.517931 22.273956 57.189888 22.273956 21.069959 0 40.93592-7.223986 55.985891-21.069958l-4.815991-4.815991c-13.845973 12.641975-32.507937 19.263962-51.771899 19.263962-19.263962 0-37.925926-6.621987-51.771899-19.263962l-1.805996-1.203998c-15.651969-14.447972-35.517931-22.273956-57.189888-22.273956-20.46796 0-40.333921 7.223986-55.383892 20.46796l-1.805997 1.203998c-13.845973 12.641975-32.507937 19.263962-51.771899 19.263962-20.46796 0-39.129924-7.223986-53.577895-20.46796-15.651969-14.447972-36.119929-22.273956-57.791887-22.273957-21.069959 0-40.93592 7.223986-55.985891 21.069959l4.815991 4.815991c13.845973-12.641975 32.507937-19.263962 51.771899-19.263963 20.46796 0 39.129924 7.223986 53.577895 20.46796 15.651969 14.447972 36.119929 22.273956 57.791887 22.273957 20.46796 0 40.333921-7.223986 55.383892-20.46796l1.805997-1.203998c13.845973-12.641975 32.507937-19.263962 51.771898-19.263962 19.263962 0 37.925926 6.621987 51.771899 19.263962z" fill="#5A5B5B" /></svg>