<?xml version="1.0" standalone="no"?><!DOCTYPE svg PUBLIC "-//W3C//DTD SVG 1.1//EN" "http://www.w3.org/Graphics/SVG/1.1/DTD/svg11.dtd"><svg class="icon" width="200px" height="200.00px" viewBox="0 0 1024 1024" version="1.1" xmlns="http://www.w3.org/2000/svg"><path d="M553.7 634m-283.3 0a283.3 283.3 0 1 0 566.6 0 283.3 283.3 0 1 0-566.6 0Z" fill="#F4C708" /><path d="M453 960C206 960 5 759 5 512S206 64 453 64s448 201 448 448-201 448-448 448z m0-853.3C229.5 106.7 47.7 288.5 47.7 512S229.5 917.3 453 917.3 858.3 735.5 858.3 512 676.5 106.7 453 106.7z" fill="#111111" /><path d="M427.7 725.6c-11.2 0-22.1-4.1-30.9-12L208.5 544c-9.8-8.8-15.3-21.4-15.3-34.5 0-13.1 5.6-25.7 15.3-34.5l188.4-169.5c13.8-12.5 32.9-15.5 49.9-7.9s27.5 23.8 27.5 42.4v339c0 18.6-10.6 34.9-27.5 42.4-6.2 2.8-12.7 4.2-19.1 4.2zM237.1 512.3l188.4 169.5c0.5 0.4 1.9 1.6 4 0.6 2.2-1 2.2-2.8 2.2-3.4V340c0-0.6 0-2.4-2.2-3.4s-3.6 0.3-4 0.6L237 506.7c-1 0.9-1.2 2-1.2 2.8 0 0.8 0.2 1.9 1.3 2.8zM603.6 759.2c-11.8 0-21.3-9.5-21.3-21.3V286.1c0-11.8 9.5-21.3 21.3-21.3s21.3 9.5 21.3 21.3v451.8c0.1 11.8-9.5 21.3-21.3 21.3z" fill="#111111" /></svg>