<?xml version="1.0" standalone="no"?><!DOCTYPE svg PUBLIC "-//W3C//DTD SVG 1.1//EN" "http://www.w3.org/Graphics/SVG/1.1/DTD/svg11.dtd"><svg class="icon" width="200px" height="200.00px" viewBox="0 0 1024 1024" version="1.1" xmlns="http://www.w3.org/2000/svg"><path d="M874.666667 204.8H183.466667c-12.8 0-21.333333-8.533333-21.333334-21.333333s8.533333-21.333333 21.333334-21.333334H874.666667c12.8 0 21.333333 8.533333 21.333333 21.333334s-10.666667 21.333333-21.333333 21.333333z" fill="#24AA7D" /><path d="M744.533333 183.466667H313.6l36.266667-61.866667c4.266667-6.4 14.933333-12.8 25.6-12.8H682.666667c10.666667 0 21.333333 4.266667 25.6 12.8l36.266666 61.866667zM770.133333 896H288c-10.666667 0-19.2-8.533333-19.2-17.066667l-40.533333-588.8c0-10.666667 8.533333-21.333333 19.2-21.333333H810.666667c10.666667 0 19.2 8.533333 19.2 21.333333L789.333333 878.933333c0 10.666667-8.533333 17.066667-19.2 17.066667z" fill="#24AA7D" /><path d="M614.4 832h-2.133333c-10.666667-2.133333-21.333333-10.666667-19.2-23.466667l42.666666-433.066666c2.133333-10.666667 10.666667-19.2 23.466667-19.2 10.666667 2.133333 21.333333 10.666667 19.2 23.466666l-42.666667 433.066667c0 10.666667-10.666667 19.2-21.333333 19.2zM441.6 832c-10.666667 0-19.2-8.533333-21.333333-19.2l-42.666667-433.066667c-2.133333-10.666667 6.4-21.333333 19.2-23.466666 12.8 0 21.333333 6.4 23.466667 19.2l42.666666 433.066666c2.133333 10.666667-6.4 21.333333-19.2 23.466667h-2.133333z" fill="#FCFCFC" /></svg>